<svg width="110" height="39" viewBox="0 0 110 39" fill="none" xmlns="http://www.w3.org/2000/svg">
<path d="M8.59375 20.3333L23.8988 11.4969L23.8988 29.1696L8.59375 20.3333Z" fill="#666666"/>
<path d="M1.33801e-06 20.3333L15.305 11.4969L15.305 29.1696L1.33801e-06 20.3333Z" fill="#2F2F2F"/>
<path d="M36.304 7.72727H42.3722L48.7812 23.3636H49.054L55.4631 7.72727H61.5312V31H56.7585V15.8523H56.5653L50.5426 30.8864H47.2926L41.2699 15.7955H41.0767V31H36.304V7.72727ZM69.5511 7.72727V10.1818C69.5511 10.8788 69.4148 11.5909 69.142 12.3182C68.8769 13.0379 68.5208 13.7197 68.0739 14.3636C67.6269 15 67.1383 15.5417 66.608 15.9886L64.4716 14.7273C64.8504 14.1288 65.1837 13.4659 65.4716 12.7386C65.767 12.0114 65.9148 11.1667 65.9148 10.2045V7.72727H69.5511ZM72.8665 31V7.72727H82.0483C83.8134 7.72727 85.3172 8.06439 86.5597 8.73864C87.8021 9.4053 88.7491 10.3333 89.4006 11.5227C90.0597 12.7045 90.3892 14.0682 90.3892 15.6136C90.3892 17.1591 90.0559 18.5227 89.3892 19.7045C88.7225 20.8864 87.7566 21.8068 86.4915 22.4659C85.2339 23.125 83.7112 23.4545 81.9233 23.4545H76.071V19.5114H81.1278C82.0748 19.5114 82.8551 19.3485 83.4688 19.0227C84.09 18.6894 84.5521 18.2311 84.8551 17.6477C85.1657 17.0568 85.321 16.3788 85.321 15.6136C85.321 14.8409 85.1657 14.1667 84.8551 13.5909C84.5521 13.0076 84.09 12.5568 83.4688 12.2386C82.8475 11.9129 82.0597 11.75 81.1051 11.75H77.7869V31H72.8665ZM93.5852 31V7.72727H98.5057V26.9432H108.483V31H93.5852Z" fill="#2F2F2F"/>
</svg>
