<svg width="200" height="200" viewBox="0 0 200 200" fill="none" xmlns="http://www.w3.org/2000/svg">
<rect width="200" height="200" fill="#DCDCDC"/>
<path d="M125.903 54.2515L79.0327 70.3084C78.0813 70.6551 77.25 71.3448 76.6596 72.2772C76.0692 73.2096 75.7506 74.3361 75.75 75.493V119.915C74.2151 119.483 72.642 119.259 71.0625 119.249C63.2988 119.249 57 124.119 57 130.124C57 136.13 63.2988 141 71.0625 141C78.8262 141 85.125 136.13 85.125 130.124V90.4147L122.625 77.6698V109.041C121.09 108.607 119.517 108.383 117.938 108.373C110.174 108.373 103.875 113.243 103.875 119.249C103.875 125.254 110.174 130.124 117.938 130.124C125.701 130.124 132 125.256 132 119.249V59.4328C131.999 58.5791 131.825 57.7376 131.492 56.9764C131.159 56.2152 130.676 55.5557 130.083 55.0512C129.489 54.5467 128.801 54.2114 128.075 54.0725C127.349 53.9336 126.605 53.9949 125.903 54.2515Z" fill="white"/>
</svg>
